<svg width="36" height="36" viewBox="0 0 36 36" fill="none" xmlns="http://www.w3.org/2000/svg">
<path d="M19.8006 18.987L18.5856 15.396C18.4956 15.168 18.3996 14.901 18.2976 14.595C18.1956 14.283 18.0936 13.947 17.9916 13.587C17.9016 13.953 17.8056 14.292 17.7036 14.604C17.6016 14.916 17.5056 15.186 17.4156 15.414L16.2096 18.987H19.8006ZM24.6336 24H22.2756C22.0116 24 21.7986 23.94 21.6366 23.82C21.4746 23.694 21.3516 23.535 21.2676 23.343L20.4936 21.057H15.5076L14.7336 23.343C14.6676 23.511 14.5476 23.664 14.3736 23.802C14.2056 23.934 13.9956 24 13.7436 24H11.3676L16.4436 10.887H19.5576L24.6336 24Z" fill="#F74151"/>
<path d="M1.41421 19.4142C0.633165 18.6332 0.633165 17.3668 1.41421 16.5858L7.0393 10.9607C7.59469 10.4053 8.49514 10.4053 9.05053 10.9607C9.60592 11.5161 9.60592 12.4165 9.05053 12.9719L2.51404 19.5084C2.23634 19.7861 1.78611 19.7861 1.50842 19.5084L1.41421 19.4142Z" fill="#1890FF"/>
<path d="M9.05054 25.0393C8.49515 25.5947 7.59469 25.5947 7.03931 25.0393L1.41422 19.4142C0.633171 18.6332 0.633171 17.3668 1.41422 16.5858L1.50843 16.4916C1.78612 16.2139 2.23635 16.2139 2.51404 16.4916L9.05054 23.0281C9.60592 23.5835 9.60592 24.4839 9.05054 25.0393Z" fill="#1890FF"/>
<path d="M16.5858 1.41421C17.3668 0.633165 18.6332 0.633165 19.4142 1.41421L25.0393 7.0393C25.5947 7.59469 25.5947 8.49514 25.0393 9.05053C24.4839 9.60592 23.5835 9.60592 23.0281 9.05053L16.4916 2.51404C16.2139 2.23634 16.2139 1.78611 16.4916 1.50842L16.5858 1.41421Z" fill="#1890FF"/>
<path d="M10.9607 9.05054C10.4053 8.49515 10.4053 7.59469 10.9607 7.03931L16.5858 1.41422C17.3669 0.633171 18.6332 0.633171 19.4142 1.41422L19.5084 1.50843C19.7861 1.78612 19.7861 2.23635 19.5084 2.51404L12.9719 9.05054C12.4166 9.60592 11.5161 9.60592 10.9607 9.05054Z" fill="#1890FF"/>
<path d="M19.4142 34.5858C18.6332 35.3668 17.3668 35.3668 16.5858 34.5858L10.9607 28.9607C10.4053 28.4053 10.4053 27.5049 10.9607 26.9495C11.5161 26.3941 12.4165 26.3941 12.9719 26.9495L19.5084 33.486C19.7861 33.7637 19.7861 34.2139 19.5084 34.4916L19.4142 34.5858Z" fill="#1890FF"/>
<path d="M25.0393 26.9495C25.5947 27.5048 25.5947 28.4053 25.0393 28.9607L19.4142 34.5858C18.6332 35.3668 17.3668 35.3668 16.5858 34.5858L16.4916 34.4916C16.2139 34.2139 16.2139 33.7636 16.4916 33.486L23.0281 26.9495C23.5834 26.3941 24.4839 26.3941 25.0393 26.9495Z" fill="#1890FF"/>
<path d="M34.5858 16.5858C35.3668 17.3668 35.3668 18.6332 34.5858 19.4142L28.9607 25.0393C28.4053 25.5947 27.5049 25.5947 26.9495 25.0393C26.3941 24.4839 26.3941 23.5835 26.9495 23.0281L33.486 16.4916C33.7637 16.2139 34.2139 16.2139 34.4916 16.4916L34.5858 16.5858Z" fill="#112B49"/>
<path d="M26.9495 10.9607C27.5048 10.4053 28.4053 10.4053 28.9607 10.9607L34.5858 16.5858C35.3668 17.3668 35.3668 18.6332 34.5858 19.4142L34.4916 19.5084C34.2139 19.7861 33.7636 19.7861 33.486 19.5084L26.9495 12.9719C26.3941 12.4165 26.3941 11.5161 26.9495 10.9607Z" fill="#112B49"/>
</svg>
