<svg width="135" height="36" viewBox="0 0 135 36" fill="none" xmlns="http://www.w3.org/2000/svg">
<path d="M1.41988 19.4085C0.635704 18.6306 0.635704 17.3694 1.41988 16.5915L7.0961 10.9607C7.65596 10.4053 8.56369 10.4053 9.12355 10.9607V10.9607C9.68342 11.5161 9.68342 12.4165 9.12355 12.9719L2.53228 19.5104C2.25347 19.787 1.80144 19.787 1.52263 19.5104L1.41988 19.4085Z" fill="#1890FF"/>
<path d="M9.12356 25.0393C8.56369 25.5947 7.65597 25.5947 7.0961 25.0393L1.41989 19.4085C0.635712 18.6306 0.635711 17.3694 1.41989 16.5915L1.52264 16.4896C1.80145 16.213 2.25348 16.213 2.53229 16.4896L9.12356 23.0281C9.68343 23.5835 9.68343 24.4839 9.12356 25.0393V25.0393Z" fill="#1890FF"/>
<path d="M16.7253 1.40852C17.5095 0.630616 18.7809 0.630616 19.5651 1.40852L25.2413 7.0393C25.8012 7.59469 25.8012 8.49514 25.2413 9.05053V9.05053C24.6815 9.60591 23.7737 9.60591 23.2139 9.05053L16.6226 2.51201C16.3438 2.23544 16.3438 1.78702 16.6226 1.51045L16.7253 1.40852Z" fill="#1890FF"/>
<path d="M11.0491 9.05054C10.4893 8.49515 10.4893 7.59469 11.0491 7.03931L16.7254 1.40853C17.5095 0.630624 18.7809 0.630624 19.5651 1.40853L19.6679 1.51045C19.9467 1.78703 19.9467 2.23544 19.6679 2.51202L13.0766 9.05054C12.5167 9.60592 11.609 9.60592 11.0491 9.05054V9.05054Z" fill="#1890FF"/>
<path d="M19.5651 34.5915C18.7809 35.3694 17.5095 35.3694 16.7253 34.5915L11.0491 28.9607C10.4893 28.4053 10.4893 27.5049 11.0491 26.9495V26.9495C11.609 26.3941 12.5167 26.3941 13.0766 26.9495L19.6679 33.488C19.9467 33.7646 19.9467 34.213 19.6679 34.4896L19.5651 34.5915Z" fill="#1890FF"/>
<path d="M25.2413 26.9495C25.8012 27.5048 25.8012 28.4053 25.2413 28.9607L19.5651 34.5915C18.7809 35.3694 17.5095 35.3694 16.7253 34.5915L16.6226 34.4895C16.3438 34.213 16.3438 33.7646 16.6226 33.488L23.2139 26.9495C23.7737 26.3941 24.6814 26.3941 25.2413 26.9495V26.9495Z" fill="#1890FF"/>
<path d="M19.3948 18.987L18.1798 15.396C18.0898 15.168 17.9938 14.901 17.8918 14.595C17.7898 14.283 17.6878 13.947 17.5858 13.587C17.4958 13.953 17.3998 14.292 17.2978 14.604C17.1958 14.916 17.0998 15.186 17.0098 15.414L15.8038 18.987H19.3948ZM24.2278 24H21.8698C21.6058 24 21.3928 23.94 21.2308 23.82C21.0688 23.694 20.9458 23.535 20.8618 23.343L20.0878 21.057H15.1018L14.3278 23.343C14.2618 23.511 14.1418 23.664 13.9678 23.802C13.7998 23.934 13.5898 24 13.3378 24H10.9618L16.0378 10.887H19.1518L24.2278 24Z" fill="#F74151"/>
<path d="M27.3364 16.107C27.507 15.9478 27.6834 15.7999 27.8654 15.6633C28.0474 15.5268 28.2409 15.413 28.4457 15.322C28.6561 15.2253 28.8808 15.1514 29.1198 15.1002C29.3644 15.0433 29.6289 15.0148 29.9133 15.0148C30.3968 15.0148 30.8235 15.1002 31.1933 15.2708C31.5687 15.4358 31.8844 15.669 32.1404 15.9705C32.3964 16.2663 32.5898 16.6219 32.7206 17.0371C32.8515 17.4467 32.9169 17.8933 32.9169 18.3768V24H30.2717V18.3768C30.2717 17.9445 30.1721 17.6088 29.973 17.3699C29.7739 17.1253 29.481 17.003 29.0942 17.003C28.804 17.003 28.531 17.0656 28.275 17.1907C28.0247 17.3102 27.7801 17.4752 27.5412 17.6856V24H24.896V15.1514H26.5343C26.8642 15.1514 27.0804 15.2993 27.1828 15.5951L27.3364 16.107ZM37.6779 24.1365C37.2569 24.1365 36.8843 24.0768 36.5601 23.9573C36.2415 23.8322 35.9713 23.6587 35.7494 23.4368C35.5333 23.2093 35.3683 22.9362 35.2545 22.6177C35.1407 22.2991 35.0839 21.9436 35.0839 21.5511V16.9774H34.333C34.1964 16.9774 34.0798 16.9347 33.9831 16.8494C33.8864 16.7584 33.8381 16.6276 33.8381 16.4569V15.4244L35.246 15.1514L35.7665 12.9925C35.8348 12.7195 36.0282 12.583 36.3467 12.583H37.7291V15.1684H39.922V16.9774H37.7291V21.3719C37.7291 21.5767 37.7774 21.7473 37.8741 21.8838C37.9765 22.0147 38.1216 22.0801 38.3093 22.0801C38.406 22.0801 38.4857 22.0716 38.5482 22.0545C38.6165 22.0317 38.6734 22.009 38.7189 21.9862C38.7701 21.9578 38.8156 21.935 38.8554 21.918C38.9009 21.8952 38.9521 21.8838 39.009 21.8838C39.0886 21.8838 39.1512 21.9037 39.1967 21.9436C39.2479 21.9777 39.2991 22.0346 39.3503 22.1142L40.1524 23.3686C39.8111 23.6246 39.4271 23.818 39.0005 23.9488C38.5738 24.074 38.133 24.1365 37.6779 24.1365Z" fill="#F74151"/>
<path d="M45.7549 17.6686C46.5058 17.6686 47.0463 17.4894 47.3762 17.131C47.7061 16.7726 47.8711 16.272 47.8711 15.6292C47.8711 15.3448 47.8284 15.0859 47.7431 14.8527C47.6578 14.6195 47.527 14.4204 47.3506 14.2554C47.1799 14.0847 46.9609 13.9539 46.6936 13.8629C46.4319 13.7719 46.119 13.7264 45.7549 13.7264H44.2532V17.6686H45.7549ZM45.7549 11.5675C46.631 11.5675 47.3819 11.6728 48.0076 11.8833C48.6391 12.088 49.1567 12.3725 49.5606 12.7365C49.9702 13.1006 50.2717 13.5301 50.4651 14.025C50.6585 14.5199 50.7552 15.0547 50.7552 15.6292C50.7552 16.2493 50.6557 16.8181 50.4566 17.3358C50.2575 17.8535 49.9531 18.2972 49.5436 18.6669C49.134 19.0367 48.6135 19.3268 47.982 19.5373C47.3563 19.7421 46.6139 19.8445 45.7549 19.8445H44.2532V24H41.369V11.5675H45.7549ZM55.6401 15.0148C56.3113 15.0148 56.9229 15.1201 57.4746 15.3306C58.0264 15.541 58.4986 15.8425 58.8911 16.235C59.2893 16.6276 59.5965 17.1054 59.8127 17.6686C60.0345 18.2261 60.1455 18.8546 60.1455 19.5543C60.1455 20.2597 60.0345 20.8969 59.8127 21.4657C59.5965 22.0289 59.2893 22.5096 58.8911 22.9078C58.4986 23.3003 58.0264 23.6046 57.4746 23.8208C56.9229 24.0313 56.3113 24.1365 55.6401 24.1365C54.9631 24.1365 54.3459 24.0313 53.7884 23.8208C53.2366 23.6046 52.7588 23.3003 52.3549 22.9078C51.9567 22.5096 51.6467 22.0289 51.4248 21.4657C51.2086 20.8969 51.1006 20.2597 51.1006 19.5543C51.1006 18.8546 51.2086 18.2261 51.4248 17.6686C51.6467 17.1054 51.9567 16.6276 52.3549 16.235C52.7588 15.8425 53.2366 15.541 53.7884 15.3306C54.3459 15.1201 54.9631 15.0148 55.6401 15.0148ZM55.6401 22.174C56.2488 22.174 56.6953 21.9606 56.9797 21.534C57.2699 21.1017 57.4149 20.4475 57.4149 19.5714C57.4149 18.6954 57.2699 18.044 56.9797 17.6174C56.6953 17.1907 56.2488 16.9774 55.6401 16.9774C55.0143 16.9774 54.5564 17.1907 54.2663 17.6174C53.9762 18.044 53.8311 18.6954 53.8311 19.5714C53.8311 20.4475 53.9762 21.1017 54.2663 21.534C54.5564 21.9606 55.0143 22.174 55.6401 22.174ZM64.1227 11.2262V24H61.4775V11.2262H64.1227ZM68.5558 11.2262V24H65.9106V11.2262H68.5558ZM74.4225 15.0148C75.0938 15.0148 75.7053 15.1201 76.2571 15.3306C76.8089 15.541 77.281 15.8425 77.6735 16.235C78.0717 16.6276 78.3789 17.1054 78.5951 17.6686C78.817 18.2261 78.9279 18.8546 78.9279 19.5543C78.9279 20.2597 78.817 20.8969 78.5951 21.4657C78.3789 22.0289 78.0717 22.5096 77.6735 22.9078C77.281 23.3003 76.8089 23.6046 76.2571 23.8208C75.7053 24.0313 75.0938 24.1365 74.4225 24.1365C73.7456 24.1365 73.1283 24.0313 72.5709 23.8208C72.0191 23.6046 71.5412 23.3003 71.1373 22.9078C70.7391 22.5096 70.4291 22.0289 70.2072 21.4657C69.9911 20.8969 69.883 20.2597 69.883 19.5543C69.883 18.8546 69.9911 18.2261 70.2072 17.6686C70.4291 17.1054 70.7391 16.6276 71.1373 16.235C71.5412 15.8425 72.0191 15.541 72.5709 15.3306C73.1283 15.1201 73.7456 15.0148 74.4225 15.0148ZM74.4225 22.174C75.0312 22.174 75.4777 21.9606 75.7622 21.534C76.0523 21.1017 76.1973 20.4475 76.1973 19.5714C76.1973 18.6954 76.0523 18.044 75.7622 17.6174C75.4777 17.1907 75.0312 16.9774 74.4225 16.9774C73.7967 16.9774 73.3388 17.1907 73.0487 17.6174C72.7586 18.044 72.6135 18.6954 72.6135 19.5714C72.6135 20.4475 72.7586 21.1017 73.0487 21.534C73.3388 21.9606 73.7967 22.174 74.4225 22.174Z" fill="#112B49"/>
<path d="M108.484 17.7795C108.484 18.6783 108.327 19.5088 108.014 20.2711C107.707 21.0277 107.272 21.6847 106.709 22.2422C106.146 22.794 105.466 23.2263 104.669 23.5392C103.879 23.8464 103 24 102.033 24H97.2031V11.5675H102.033C103 11.5675 103.879 11.724 104.669 12.0368C105.466 12.3497 106.146 12.7821 106.709 13.3338C107.272 13.8856 107.707 14.5427 108.014 15.305C108.327 16.0615 108.484 16.8864 108.484 17.7795ZM105.531 17.7795C105.531 17.1651 105.452 16.6105 105.292 16.1156C105.133 15.6207 104.903 15.2026 104.601 14.8612C104.305 14.5142 103.941 14.2497 103.509 14.0677C103.077 13.88 102.585 13.7861 102.033 13.7861H100.104V21.7814H102.033C102.585 21.7814 103.077 21.6904 103.509 21.5084C103.941 21.3207 104.305 21.0561 104.601 20.7148C104.903 20.3678 105.133 19.9469 105.292 19.452C105.452 18.957 105.531 18.3996 105.531 17.7795ZM113.857 15.0148C114.529 15.0148 115.14 15.1201 115.692 15.3306C116.244 15.541 116.716 15.8425 117.108 16.235C117.507 16.6276 117.814 17.1054 118.03 17.6686C118.252 18.2261 118.363 18.8546 118.363 19.5543C118.363 20.2597 118.252 20.8969 118.03 21.4657C117.814 22.0289 117.507 22.5096 117.108 22.9078C116.716 23.3003 116.244 23.6046 115.692 23.8208C115.14 24.0313 114.529 24.1365 113.857 24.1365C113.18 24.1365 112.563 24.0313 112.006 23.8208C111.454 23.6046 110.976 23.3003 110.572 22.9078C110.174 22.5096 109.864 22.0289 109.642 21.4657C109.426 20.8969 109.318 20.2597 109.318 19.5543C109.318 18.8546 109.426 18.2261 109.642 17.6686C109.864 17.1054 110.174 16.6276 110.572 16.235C110.976 15.8425 111.454 15.541 112.006 15.3306C112.563 15.1201 113.18 15.0148 113.857 15.0148ZM113.857 22.174C114.466 22.174 114.913 21.9606 115.197 21.534C115.487 21.1017 115.632 20.4475 115.632 19.5714C115.632 18.6954 115.487 18.044 115.197 17.6174C114.913 17.1907 114.466 16.9774 113.857 16.9774C113.232 16.9774 112.774 17.1907 112.484 17.6174C112.193 18.044 112.048 18.6954 112.048 19.5714C112.048 20.4475 112.193 21.1017 112.484 21.534C112.774 21.9606 113.232 22.174 113.857 22.174ZM126.197 17.2505C126.117 17.3472 126.041 17.424 125.967 17.4808C125.893 17.5377 125.787 17.5662 125.651 17.5662C125.52 17.5662 125.401 17.5349 125.292 17.4723C125.19 17.4097 125.073 17.3415 124.943 17.2675C124.812 17.1879 124.658 17.1168 124.482 17.0542C124.305 16.9916 124.086 16.9603 123.825 16.9603C123.501 16.9603 123.219 17.0201 122.98 17.1395C122.747 17.259 122.553 17.4297 122.4 17.6515C122.246 17.8734 122.132 18.1464 122.058 18.4707C121.985 18.7892 121.948 19.1505 121.948 19.5543C121.948 20.402 122.11 21.0533 122.434 21.5084C122.764 21.9635 123.216 22.191 123.791 22.191C124.098 22.191 124.34 22.154 124.516 22.0801C124.698 22.0005 124.852 21.9151 124.977 21.8241C125.102 21.7274 125.216 21.6392 125.318 21.5596C125.426 21.4799 125.56 21.4401 125.719 21.4401C125.93 21.4401 126.089 21.5169 126.197 21.6705L126.965 22.6177C126.692 22.9305 126.405 23.1865 126.103 23.3856C125.802 23.579 125.492 23.7326 125.173 23.8464C124.86 23.9545 124.544 24.0284 124.226 24.0683C123.907 24.1138 123.597 24.1365 123.296 24.1365C122.755 24.1365 122.238 24.0341 121.743 23.8293C121.254 23.6246 120.821 23.3287 120.446 22.9419C120.076 22.5494 119.78 22.0687 119.558 21.4999C119.342 20.931 119.234 20.2825 119.234 19.5543C119.234 18.9172 119.328 18.3228 119.516 17.771C119.709 17.2135 119.991 16.7328 120.36 16.3289C120.736 15.9193 121.197 15.5979 121.743 15.3647C122.295 15.1315 122.932 15.0148 123.654 15.0148C124.348 15.0148 124.957 15.1258 125.48 15.3476C126.004 15.5695 126.476 15.8937 126.897 16.3204L126.197 17.2505ZM133.618 17.0883C133.549 17.1964 133.475 17.2732 133.396 17.3187C133.322 17.3642 133.225 17.387 133.106 17.387C132.981 17.387 132.855 17.3614 132.73 17.3102C132.605 17.2533 132.469 17.1936 132.321 17.131C132.178 17.0684 132.016 17.0115 131.834 16.9603C131.652 16.9035 131.445 16.875 131.211 16.875C130.876 16.875 130.617 16.9404 130.435 17.0713C130.259 17.1964 130.17 17.3728 130.17 17.6003C130.17 17.7653 130.227 17.9018 130.341 18.0099C130.46 18.118 130.617 18.2147 130.81 18.3C131.004 18.3796 131.223 18.4564 131.467 18.5304C131.712 18.6043 131.962 18.6868 132.218 18.7779C132.474 18.8689 132.725 18.977 132.969 19.1021C133.214 19.2216 133.433 19.3723 133.626 19.5543C133.82 19.7307 133.973 19.9469 134.087 20.2029C134.206 20.4588 134.266 20.766 134.266 21.1244C134.266 21.5624 134.187 21.9663 134.027 22.3361C133.868 22.7058 133.629 23.0244 133.31 23.2918C132.998 23.5591 132.608 23.7668 132.141 23.9147C131.681 24.0626 131.149 24.1365 130.546 24.1365C130.244 24.1365 129.943 24.1081 129.641 24.0512C129.34 23.9943 129.047 23.9175 128.762 23.8208C128.484 23.7241 128.225 23.6103 127.986 23.4795C127.747 23.343 127.542 23.1979 127.372 23.0443L127.986 22.0716C128.054 21.9578 128.14 21.8696 128.242 21.807C128.35 21.7388 128.487 21.7046 128.651 21.7046C128.805 21.7046 128.942 21.7388 129.061 21.807C129.186 21.8753 129.32 21.9493 129.462 22.0289C129.604 22.1085 129.769 22.1825 129.957 22.2508C130.15 22.319 130.392 22.3531 130.682 22.3531C130.887 22.3531 131.061 22.3332 131.203 22.2934C131.345 22.2479 131.459 22.1882 131.544 22.1142C131.629 22.0403 131.692 21.9578 131.732 21.8668C131.772 21.7758 131.792 21.6819 131.792 21.5852C131.792 21.4088 131.732 21.2638 131.612 21.15C131.493 21.0362 131.337 20.9395 131.143 20.8599C130.95 20.7746 130.728 20.6978 130.478 20.6295C130.233 20.5555 129.983 20.4731 129.727 20.382C129.471 20.291 129.218 20.1829 128.967 20.0578C128.723 19.927 128.504 19.7648 128.31 19.5714C128.117 19.3723 127.96 19.1305 127.841 18.8461C127.721 18.5617 127.662 18.2175 127.662 17.8136C127.662 17.4382 127.733 17.0826 127.875 16.747C128.023 16.4057 128.242 16.107 128.532 15.8511C128.822 15.5951 129.186 15.3931 129.624 15.2452C130.062 15.0916 130.574 15.0148 131.16 15.0148C131.479 15.0148 131.786 15.0433 132.082 15.1002C132.383 15.157 132.665 15.2367 132.926 15.3391C133.188 15.4415 133.427 15.5638 133.643 15.706C133.859 15.8425 134.05 15.9933 134.215 16.1582L133.618 17.0883Z" fill="#112B49"/>
<line x1="88.5" y1="7" x2="88.5" y2="28" stroke="#BFBFBF"/>
</svg>
